<svg id="svg" version="1.1" xmlns="http://www.w3.org/2000/svg" xmlns:xlink="http://www.w3.org/1999/xlink" width="400" height="266.6666666666667" viewBox="0, 0, 400,266.6666666666667"><g id="svgg"><path id="path0" d="M0.000 133.333 L 0.000 266.667 200.000 266.667 L 400.000 266.667 400.000 133.333 L 400.000 0.000 200.000 0.000 L 0.000 0.000 0.000 133.333 M122.163 114.200 C 123.908 114.652,125.793 115.520,126.797 116.333 L 127.417 116.835 125.868 118.484 L 124.318 120.132 123.162 119.463 C 113.969 114.146,101.995 123.365,106.933 131.957 C 109.109 135.743,115.858 136.796,121.048 134.158 L 122.547 133.397 123.474 135.183 C 124.555 137.268,124.540 137.301,122.032 138.411 C 114.383 141.794,104.594 139.320,101.743 133.283 C 96.507 122.197,108.776 110.731,122.163 114.200 M249.012 114.518 C 249.229 114.769,250.259 117.113,251.302 119.727 L 253.197 124.479 256.007 124.479 L 258.817 124.479 262.156 120.136 C 263.992 117.747,265.829 115.403,266.238 114.928 L 266.981 114.063 269.566 114.063 C 272.745 114.063,272.596 113.704,271.621 119.019 C 270.525 124.989,270.394 124.479,273.021 124.479 C 275.080 124.479,275.286 124.427,276.533 123.588 C 280.991 120.587,287.787 120.564,291.079 123.538 L 292.120 124.479 297.244 124.479 C 304.356 124.479,304.137 124.222,302.988 131.259 C 301.932 137.727,302.508 137.240,295.914 137.240 C 292.805 137.240,290.885 137.337,290.885 137.495 C 290.885 137.930,288.912 138.784,286.659 139.324 C 282.436 140.336,277.996 139.813,275.348 137.992 C 274.298 137.269,274.138 137.240,271.242 137.240 L 268.229 137.240 268.229 137.869 C 268.229 139.249,268.089 139.323,265.464 139.323 L 263.015 139.323 263.181 138.281 L 263.348 137.240 253.973 137.240 L 244.598 137.240 244.431 138.281 L 244.265 139.323 241.794 139.323 C 240.435 139.323,239.323 139.213,239.323 139.080 C 239.323 138.520,243.424 114.972,243.623 114.388 C 243.812 113.832,248.516 113.946,249.012 114.518 M141.829 121.641 C 146.030 122.452,148.773 127.189,147.370 131.211 L 147.084 132.031 139.269 132.031 L 131.454 132.031 131.630 132.747 C 132.365 135.735,137.327 137.036,141.406 135.312 C 144.104 134.171,143.930 134.150,144.657 135.712 C 145.536 137.600,145.512 137.692,143.945 138.419 C 135.006 142.569,125.237 137.782,126.790 130.013 C 128.081 123.553,134.173 120.162,141.829 121.641 M166.815 121.737 C 170.743 122.906,171.359 125.219,169.948 133.497 C 169.432 136.523,169.010 139.071,169.010 139.161 C 169.010 139.250,167.884 139.323,166.508 139.323 L 164.006 139.323 164.125 138.477 C 164.191 138.011,164.625 135.457,165.091 132.801 C 165.890 128.237,165.915 127.918,165.530 126.997 C 164.456 124.428,159.331 124.730,156.732 127.516 C 156.043 128.255,155.852 129.093,154.244 138.477 L 154.099 139.323 151.647 139.323 L 149.195 139.323 149.351 138.477 C 149.437 138.011,150.125 134.056,150.879 129.688 L 152.251 121.745 154.548 121.669 L 156.845 121.593 156.681 122.786 L 156.517 123.979 157.420 123.291 C 159.798 121.477,163.748 120.823,166.815 121.737 M187.500 121.740 C 189.297 122.216,190.885 122.920,190.885 123.241 C 190.885 123.873,189.168 126.318,188.802 126.207 C 188.587 126.141,187.728 125.838,186.893 125.534 C 182.841 124.057,177.654 125.397,179.491 127.446 C 179.983 127.994,180.583 128.188,183.193 128.645 C 187.863 129.463,189.822 130.654,190.251 132.937 C 191.162 137.797,184.200 141.176,176.847 139.443 C 175.127 139.037,172.135 137.608,172.135 137.192 C 172.135 136.978,174.193 134.115,174.347 134.115 C 174.384 134.115,174.931 134.404,175.562 134.757 C 179.025 136.692,184.802 136.527,185.317 134.478 C 185.618 133.279,184.669 132.733,181.129 132.066 C 176.296 131.156,174.520 129.939,174.287 127.376 C 173.885 122.956,180.860 119.981,187.500 121.740 M209.766 122.228 C 217.892 125.955,215.183 137.580,205.714 139.611 C 196.758 141.532,190.024 134.800,193.597 127.498 C 196.149 122.280,204.175 119.665,209.766 122.228 M231.771 121.544 C 231.771 121.648,231.576 122.639,231.338 123.746 L 230.906 125.760 229.827 125.612 C 227.620 125.309,224.358 126.616,223.304 128.223 C 223.027 128.647,221.094 138.254,221.094 139.210 C 221.094 139.272,219.978 139.323,218.615 139.323 C 216.181 139.323,216.138 139.312,216.261 138.737 C 216.606 137.121,217.572 131.652,218.251 127.474 C 218.671 124.896,219.074 122.523,219.147 122.201 C 219.273 121.649,219.411 121.615,221.523 121.615 L 223.766 121.615 223.637 122.758 L 223.508 123.901 225.066 122.894 C 225.924 122.340,227.050 121.816,227.570 121.729 C 228.090 121.643,228.633 121.532,228.776 121.484 C 229.291 121.309,231.771 121.358,231.771 121.544 M247.044 122.399 C 246.674 124.247,246.803 124.740,247.656 124.740 C 248.086 124.740,248.438 124.701,248.438 124.654 C 248.438 124.606,248.162 123.890,247.825 123.062 L 247.212 121.556 247.044 122.399 M265.136 122.956 C 264.297 124.096,264.292 124.479,265.115 124.479 C 265.425 124.479,265.660 124.256,265.734 123.893 C 265.799 123.571,265.921 122.985,266.004 122.591 C 266.208 121.627,266.070 121.685,265.136 122.956 M136.719 124.969 C 135.191 125.297,133.882 126.056,132.934 127.164 C 131.409 128.946,131.352 128.925,137.565 128.846 L 143.099 128.776 143.013 127.995 C 142.773 125.821,139.679 124.333,136.719 124.969 M203.255 125.292 C 195.716 126.633,195.598 136.276,203.125 135.869 C 207.253 135.646,209.928 132.829,209.569 129.084 C 209.309 126.380,206.529 124.710,203.255 125.292 " stroke="none" fill="#1c1c23" fill-rule="evenodd"></path><path id="path1" d="M114.387 113.823 C 95.548 116.718,96.318 140.792,115.215 139.759 C 119.106 139.546,123.714 138.179,124.122 137.117 C 124.240 136.808,122.761 133.594,122.501 133.594 C 122.433 133.594,121.817 133.878,121.132 134.226 C 112.122 138.791,102.803 132.360,106.566 124.173 C 109.247 118.339,118.329 115.894,123.537 119.602 L 124.309 120.152 125.819 118.474 L 127.328 116.797 126.750 116.341 C 124.200 114.330,118.561 113.181,114.387 113.823 M243.634 114.639 C 243.508 115.034,241.434 126.816,240.343 133.333 C 239.923 135.840,239.513 138.213,239.431 138.607 L 239.282 139.323 241.776 139.323 C 243.148 139.323,244.271 139.255,244.271 139.171 C 244.271 139.087,244.673 136.597,245.166 133.637 C 245.658 130.677,246.258 126.967,246.500 125.391 C 246.742 123.816,247.021 122.307,247.121 122.036 C 247.251 121.686,248.040 123.384,249.874 127.960 L 252.446 134.375 254.423 134.375 L 256.400 134.375 260.557 128.872 C 266.117 121.511,266.146 121.476,266.146 121.949 C 266.146 122.341,263.432 137.548,263.150 138.737 C 263.013 139.313,263.053 139.323,265.462 139.323 L 267.914 139.323 268.462 136.263 C 268.764 134.580,269.722 129.219,270.590 124.349 C 271.459 119.479,272.233 115.231,272.311 114.909 C 272.451 114.328,272.427 114.323,269.574 114.323 L 266.696 114.323 263.621 118.335 C 261.930 120.542,259.375 123.878,257.943 125.750 C 256.510 127.621,255.280 129.154,255.208 129.156 C 255.095 129.159,252.356 122.619,249.886 116.445 L 249.089 114.453 246.415 114.379 C 244.413 114.323,243.714 114.389,243.634 114.639 M134.621 121.829 C 128.613 123.818,125.477 129.147,127.223 134.402 C 128.770 139.061,135.558 141.093,142.376 138.939 C 145.308 138.013,145.420 137.904,144.918 136.457 C 144.180 134.334,144.053 134.265,142.315 135.061 C 138.305 136.897,133.567 136.312,132.030 133.791 C 130.913 131.959,130.614 132.031,139.304 132.031 L 147.098 132.031 147.406 130.550 C 148.748 124.086,141.906 119.419,134.621 121.829 M160.393 121.848 C 159.592 122.104,158.373 122.702,157.684 123.176 L 156.431 124.038 156.604 122.956 L 156.777 121.875 154.565 121.875 C 152.484 121.875,152.346 121.910,152.222 122.461 C 152.150 122.783,151.678 125.508,151.173 128.516 C 150.350 133.414,149.695 137.056,149.335 138.737 C 149.186 139.429,153.793 139.684,154.040 138.997 C 154.104 138.818,154.566 136.337,155.066 133.482 C 155.971 128.311,155.978 128.289,156.959 127.269 C 159.560 124.564,164.806 124.509,165.744 127.178 C 165.965 127.804,164.780 136.347,164.126 138.850 C 164.012 139.282,164.212 139.323,166.450 139.323 L 168.898 139.323 169.901 133.243 C 171.090 126.036,171.032 125.235,169.173 123.304 C 167.360 121.421,163.650 120.806,160.393 121.848 M179.818 121.706 C 175.234 122.896,173.129 126.260,175.034 129.349 C 175.744 130.501,177.694 131.358,181.059 131.996 C 184.756 132.697,185.286 132.960,185.286 134.090 C 185.286 136.658,178.564 136.988,175.191 134.586 C 174.783 134.295,174.409 134.100,174.360 134.151 C 174.311 134.203,173.786 134.889,173.194 135.677 L 172.118 137.109 172.824 137.677 C 177.037 141.063,187.352 140.187,189.504 136.259 C 191.625 132.389,189.489 129.751,183.448 128.778 C 179.150 128.086,178.021 127.194,179.626 125.760 C 181.044 124.494,185.279 124.515,187.801 125.802 C 189.078 126.453,188.931 126.518,190.010 124.831 L 190.951 123.359 190.339 122.897 C 188.701 121.662,182.632 120.975,179.818 121.706 M201.071 121.750 C 190.134 124.815,189.854 138.111,200.693 139.672 C 209.847 140.991,217.155 133.191,213.641 125.853 C 211.920 122.259,206.069 120.349,201.071 121.750 M227.995 121.720 C 226.441 122.104,225.364 122.644,224.206 123.618 L 223.350 124.338 223.519 123.107 L 223.688 121.875 221.503 121.875 L 219.319 121.875 218.881 124.414 C 218.640 125.811,217.973 129.590,217.398 132.813 C 216.823 136.035,216.336 138.789,216.315 138.932 C 216.291 139.089,217.202 139.193,218.609 139.193 L 220.942 139.193 221.388 136.849 C 221.633 135.560,222.074 133.158,222.368 131.510 C 223.143 127.171,225.333 125.334,229.472 125.554 L 230.814 125.625 231.269 123.688 C 231.870 121.130,231.436 120.870,227.995 121.720 M280.649 121.729 C 271.226 124.439,269.268 136.176,277.754 139.088 C 281.012 140.205,285.859 139.897,289.388 138.347 C 291.097 137.596,291.101 137.584,290.244 135.742 C 289.511 134.167,289.475 134.157,287.754 135.029 C 284.063 136.900,279.131 136.299,277.603 133.791 C 276.485 131.959,276.186 132.031,284.891 132.031 L 292.698 132.031 292.892 131.315 C 294.696 124.661,288.184 119.562,280.649 121.729 M141.069 125.430 C 142.173 125.972,143.229 127.371,143.229 128.294 L 143.229 128.906 137.493 128.906 L 131.757 128.906 132.131 128.185 C 133.655 125.236,137.964 123.908,141.069 125.430 M286.662 125.446 C 287.772 125.999,288.474 126.898,288.701 128.060 L 288.867 128.906 283.236 128.906 C 277.085 128.906,277.134 128.921,278.276 127.423 C 280.126 124.997,283.950 124.096,286.662 125.446 M206.020 125.291 C 211.848 126.541,210.419 134.758,204.168 135.938 C 198.797 136.952,195.558 132.039,198.798 127.792 C 200.455 125.618,203.167 124.679,206.020 125.291 " stroke="none" fill="#f8f7f8" fill-rule="evenodd"></path><path id="path2" d="M243.659 114.258 C 243.592 114.365,244.376 114.421,245.402 114.382 C 248.574 114.261,248.941 114.148,246.304 114.104 C 244.916 114.081,243.726 114.150,243.659 114.258 M268.164 114.254 C 268.916 114.307,270.146 114.307,270.898 114.254 C 271.650 114.202,271.035 114.159,269.531 114.159 C 268.027 114.159,267.412 114.202,268.164 114.254 M137.565 121.273 C 137.816 121.339,138.226 121.339,138.477 121.273 C 138.727 121.208,138.522 121.154,138.021 121.154 C 137.520 121.154,137.314 121.208,137.565 121.273 M152.257 121.788 C 152.161 121.884,152.085 122.089,152.087 122.244 C 152.090 122.420,152.167 122.408,152.291 122.212 C 152.413 122.020,153.348 121.863,154.696 121.809 L 156.901 121.721 154.666 121.668 C 153.436 121.638,152.352 121.693,152.257 121.788 M220.385 121.806 C 221.070 121.860,222.125 121.859,222.729 121.805 C 223.334 121.750,222.773 121.706,221.484 121.707 C 220.195 121.708,219.701 121.752,220.385 121.806 M246.648 124.219 C 246.607 124.920,244.885 135.686,244.659 136.650 L 244.523 137.233 253.967 137.301 L 263.411 137.370 264.626 130.729 C 265.293 127.077,265.791 124.040,265.732 123.980 C 265.673 123.920,265.625 124.023,265.625 124.208 C 265.625 124.442,265.390 124.497,264.849 124.389 C 264.097 124.239,263.951 124.395,260.238 129.304 L 256.403 134.375 254.418 134.375 L 252.434 134.375 250.521 129.557 L 248.608 124.740 247.760 124.740 C 247.087 124.740,246.888 124.618,246.798 124.154 C 246.692 123.602,246.683 123.606,246.648 124.219 M270.380 125.398 C 270.204 126.396,269.667 129.469,269.186 132.227 L 268.312 137.240 271.344 137.240 C 273.401 137.240,274.492 137.344,274.738 137.565 C 274.938 137.744,274.727 137.447,274.269 136.904 C 271.759 133.931,271.839 129.488,274.473 125.660 L 275.285 124.479 273.078 124.479 C 271.197 124.479,270.859 124.413,270.785 124.031 C 270.738 123.784,270.555 124.399,270.380 125.398 M292.448 125.650 C 293.125 127.004,293.335 129.682,292.892 131.315 L 292.698 132.031 284.891 132.031 C 276.186 132.031,276.485 131.959,277.603 133.791 C 279.131 136.299,284.063 136.900,287.754 135.029 C 289.483 134.153,289.515 134.163,290.268 135.807 L 290.924 137.240 295.934 137.240 C 302.505 137.240,301.932 137.725,302.988 131.259 C 304.131 124.260,304.465 124.653,297.224 124.479 L 291.797 124.349 292.448 125.650 M254.121 126.819 C 255.275 129.640,254.969 129.640,257.110 126.816 L 258.881 124.479 256.023 124.479 L 253.165 124.479 254.121 126.819 M282.054 125.008 C 280.651 125.301,279.176 126.244,278.276 127.423 C 277.134 128.921,277.085 128.906,283.236 128.906 L 288.867 128.906 288.701 128.060 C 288.226 125.631,285.364 124.318,282.054 125.008 M126.633 131.510 C 126.633 132.155,126.684 132.419,126.746 132.096 C 126.808 131.774,126.808 131.247,126.746 130.924 C 126.684 130.602,126.633 130.866,126.633 131.510 " stroke="none" fill="#ab0953" fill-rule="evenodd"></path></g></svg>