<svg width="698" height="90" xmlns="http://www.w3.org/2000/svg" xmlns:xlink="http://www.w3.org/1999/xlink" xml:space="preserve" overflow="hidden"><defs><clipPath id="clip0"><rect x="1858" y="1169" width="698" height="90"/></clipPath></defs><g clip-path="url(#clip0)" transform="translate(-1858 -1169)"><path d="M1905.25 1169.61C1840.48 1179.57 1843.13 1262.35 1908.1 1258.79 1921.47 1258.06 1937.32 1253.36 1938.72 1249.71 1939.12 1248.65 1934.04 1237.6 1933.15 1237.6 1932.91 1237.6 1930.79 1238.57 1928.44 1239.77 1897.46 1255.47 1865.42 1233.35 1878.36 1205.2 1887.58 1185.14 1918.8 1176.73 1936.71 1189.48L1939.36 1191.38 1944.55 1185.61 1949.74 1179.84 1947.75 1178.27C1938.99 1171.36 1919.6 1167.41 1905.25 1169.61M2349.61 1172.42C2349.17 1173.78 2342.04 1214.29 2338.29 1236.7 2336.85 1245.32 2335.44 1253.48 2335.16 1254.83L2334.64 1257.29 2343.22 1257.29C2347.94 1257.29 2351.8 1257.06 2351.8 1256.77 2351.8 1256.48 2353.18 1247.92 2354.87 1237.74 2356.56 1227.57 2358.63 1214.81 2359.46 1209.39 2360.29 1203.97 2361.25 1198.79 2361.59 1197.85 2362.04 1196.65 2364.75 1202.49 2371.06 1218.22L2379.9 1240.28 2386.7 1240.28 2393.5 1240.28 2407.79 1221.36C2426.9 1196.05 2427 1195.93 2427 1197.55 2427 1198.9 2417.67 1251.19 2416.7 1255.28 2416.23 1257.26 2416.37 1257.29 2424.65 1257.29L2433.08 1257.29 2434.97 1246.77C2436 1240.99 2439.3 1222.55 2442.28 1205.81 2445.27 1189.06 2447.93 1174.45 2448.2 1173.35 2448.68 1171.35 2448.6 1171.33 2438.79 1171.33L2428.89 1171.33 2418.32 1185.13C2412.51 1192.72 2403.72 1204.19 2398.8 1210.62 2393.87 1217.06 2389.65 1222.33 2389.4 1222.34 2389.01 1222.35 2379.59 1199.86 2371.1 1178.63L2368.36 1171.78 2359.17 1171.53C2352.28 1171.33 2349.88 1171.56 2349.61 1172.42M1974.82 1197.14C1954.16 1203.98 1943.38 1222.3 1949.38 1240.37 1954.7 1256.39 1978.04 1263.38 2001.48 1255.97 2011.56 1252.79 2011.94 1252.42 2010.22 1247.44 2007.68 1240.14 2007.24 1239.9 2001.27 1242.64 1987.48 1248.95 1971.19 1246.94 1965.91 1238.27 1962.07 1231.97 1961.04 1232.22 1990.92 1232.22L2017.71 1232.22 2018.77 1227.13C2023.38 1204.9 1999.86 1188.86 1974.82 1197.14M2063.42 1197.21C2060.67 1198.09 2056.48 1200.14 2054.11 1201.77L2049.8 1204.74 2050.39 1201.02 2050.99 1197.3 2043.38 1197.3C2036.23 1197.3 2035.75 1197.42 2035.33 1199.32 2035.08 1200.42 2033.46 1209.79 2031.72 1220.14 2028.89 1236.98 2026.64 1249.5 2025.4 1255.28 2024.89 1257.66 2040.73 1258.54 2041.58 1256.17 2041.8 1255.56 2043.39 1247.03 2045.11 1237.21 2048.22 1219.43 2048.24 1219.35 2051.61 1215.85 2060.56 1206.55 2078.59 1206.36 2081.82 1215.53 2082.58 1217.69 2078.5 1247.06 2076.25 1255.67 2075.86 1257.15 2076.55 1257.29 2084.24 1257.29L2092.66 1257.29 2096.11 1236.39C2100.2 1211.61 2100 1208.85 2093.61 1202.21 2087.37 1195.74 2074.62 1193.62 2063.42 1197.21M2130.2 1196.72C2114.44 1200.81 2107.21 1212.38 2113.76 1223 2116.2 1226.96 2122.9 1229.91 2134.47 1232.1 2147.18 1234.51 2149 1235.42 2149 1239.3 2149 1248.13 2125.89 1249.27 2114.3 1241.01 2112.89 1240.01 2111.61 1239.34 2111.44 1239.51 2111.27 1239.69 2109.47 1242.05 2107.43 1244.76L2103.73 1249.68 2106.16 1251.64C2120.64 1263.28 2156.11 1260.27 2163.51 1246.76 2170.8 1233.45 2163.45 1224.38 2142.68 1221.04 2127.91 1218.66 2124.03 1215.59 2129.54 1210.66 2134.42 1206.31 2148.98 1206.38 2157.65 1210.8 2162.04 1213.04 2161.54 1213.27 2165.24 1207.46L2168.48 1202.4 2166.38 1200.81C2160.74 1196.57 2139.88 1194.21 2130.2 1196.72M2203.27 1196.87C2165.67 1207.41 2164.71 1253.13 2201.97 1258.5 2233.45 1263.03 2258.57 1236.21 2246.49 1210.98 2240.57 1198.62 2220.46 1192.05 2203.27 1196.87M2295.84 1196.77C2290.5 1198.09 2286.79 1199.94 2282.81 1203.29L2279.87 1205.77 2280.45 1201.54 2281.03 1197.3 2273.52 1197.3 2266.01 1197.3 2264.5 1206.03C2263.68 1210.83 2261.38 1223.83 2259.41 1234.91 2257.43 1245.99 2255.75 1255.46 2255.68 1255.95 2255.6 1256.49 2258.73 1256.85 2263.57 1256.85L2271.59 1256.85 2273.12 1248.79C2273.97 1244.36 2275.48 1236.1 2276.49 1230.43 2279.16 1215.51 2286.69 1209.19 2300.92 1209.95L2305.53 1210.19 2307.09 1203.53C2309.16 1194.74 2307.67 1193.84 2295.84 1196.77M2476.86 1196.8C2444.47 1206.12 2437.74 1246.47 2466.91 1256.49 2478.11 1260.33 2494.78 1259.27 2506.91 1253.94 2512.79 1251.36 2512.8 1251.32 2509.85 1244.98 2507.33 1239.57 2507.21 1239.53 2501.29 1242.53 2488.6 1248.96 2471.65 1246.9 2466.39 1238.27 2462.55 1231.97 2461.52 1232.22 2491.45 1232.22L2518.29 1232.22 2518.96 1229.76C2525.16 1206.88 2502.77 1189.35 2476.86 1196.8M1996.98 1209.52C2000.78 1211.39 2004.41 1216.2 2004.41 1219.37L2004.41 1221.48 1984.69 1221.48 1964.97 1221.48 1966.25 1219C1971.49 1208.86 1986.31 1204.29 1996.98 1209.52M2497.54 1209.58C2501.35 1211.48 2503.77 1214.57 2504.55 1218.57L2505.12 1221.48 2485.76 1221.48C2464.61 1221.48 2464.78 1221.53 2468.71 1216.38 2475.07 1208.04 2488.21 1204.94 2497.54 1209.58M2220.29 1209.05C2240.32 1213.34 2235.41 1241.6 2213.92 1245.66 2195.45 1249.14 2184.32 1232.25 2195.46 1217.65 2201.16 1210.17 2210.48 1206.94 2220.29 1209.05" fill="#F8F7F8" fill-rule="evenodd"/><path d="M2350.03 1171.55C2349.8 1171.91 2352.49 1172.11 2356.01 1171.97 2366.91 1171.56 2368.17 1171.17 2359.11 1171.02 2354.34 1170.94 2350.26 1171.17 2350.03 1171.55M2434.21 1171.53C2436.79 1171.71 2441.02 1171.71 2443.6 1171.53 2446.18 1171.35 2444.07 1171.2 2438.91 1171.2 2433.74 1171.2 2431.63 1171.35 2434.21 1171.53M1985.56 1195.71C1986.42 1195.93 1987.83 1195.93 1988.69 1195.71 1989.55 1195.48 1988.84 1195.3 1987.12 1195.3 1985.4 1195.3 1984.69 1195.48 1985.56 1195.71M2036.03 1197.48C2035.7 1197.81 2035.44 1198.52 2035.44 1199.05 2035.45 1199.66 2035.72 1199.62 2036.14 1198.94 2036.56 1198.28 2039.78 1197.74 2044.41 1197.55L2051.98 1197.25 2044.3 1197.07C2040.08 1196.96 2036.35 1197.15 2036.03 1197.48M2270.07 1197.54C2272.42 1197.73 2276.05 1197.73 2278.12 1197.54 2280.2 1197.35 2278.27 1197.2 2273.85 1197.2 2269.42 1197.21 2267.72 1197.36 2270.07 1197.54M2360.29 1205.85C2360.15 1208.27 2354.24 1245.35 2353.46 1248.67L2352.99 1250.68 2385.44 1250.91 2417.88 1251.15 2422.05 1228.28C2424.35 1215.7 2426.06 1205.24 2425.85 1205.03 2425.65 1204.82 2425.49 1205.18 2425.49 1205.82 2425.49 1206.62 2424.68 1206.81 2422.82 1206.44 2420.24 1205.92 2419.74 1206.46 2406.98 1223.37L2393.81 1240.83 2386.99 1240.83 2380.17 1240.83 2373.6 1224.24 2367.03 1207.65 2364.11 1207.65C2361.8 1207.65 2361.12 1207.23 2360.81 1205.63 2360.45 1203.73 2360.41 1203.74 2360.29 1205.85M2441.82 1209.91C2441.22 1213.35 2439.37 1223.94 2437.72 1233.44L2434.72 1250.7 2445.13 1250.7C2452.2 1250.7 2455.95 1251.06 2456.79 1251.82 2457.48 1252.44 2456.76 1251.41 2455.18 1249.54 2446.56 1239.3 2446.83 1224 2455.88 1210.82L2458.67 1206.75 2451.09 1206.75C2444.63 1206.75 2443.47 1206.52 2443.21 1205.21 2443.05 1204.36 2442.42 1206.47 2441.82 1209.91M2517.63 1210.78C2519.96 1215.45 2520.68 1224.67 2519.16 1230.29L2518.49 1232.76 2491.67 1232.76C2461.77 1232.76 2462.79 1232.51 2466.64 1238.82 2471.89 1247.46 2488.83 1249.53 2501.51 1243.09 2507.45 1240.07 2507.56 1240.1 2510.14 1245.77L2512.4 1250.7 2529.61 1250.7C2552.18 1250.7 2550.21 1252.37 2553.84 1230.1 2557.77 1205.99 2558.92 1207.35 2534.04 1206.75L2515.4 1206.3 2517.63 1210.78M2385.97 1214.81C2389.93 1224.53 2388.88 1224.53 2396.23 1214.8L2402.32 1206.75 2392.5 1206.75 2382.68 1206.75 2385.97 1214.81M2481.93 1208.57C2477.11 1209.58 2472.04 1212.83 2468.95 1216.89 2465.02 1222.05 2464.86 1222 2485.99 1222L2505.33 1222 2504.76 1219.08C2503.13 1210.72 2493.3 1206.19 2481.93 1208.57M1948 1230.97C1948 1233.19 1948.18 1234.1 1948.39 1232.98 1948.6 1231.88 1948.6 1230.06 1948.39 1228.95 1948.18 1227.84 1948 1228.75 1948 1230.97" fill="#AB0953" fill-rule="evenodd"/></g></svg>